<svg id="Ebene_1" data-name="Ebene 1" xmlns="http://www.w3.org/2000/svg" viewBox="0 0 2483.42 1596.24"><defs><style>.cls-1,.cls-4{fill:none;}.cls-1,.cls-3,.cls-4{stroke:red;}.cls-1,.cls-2,.cls-3,.cls-4{stroke-linecap:round;stroke-miterlimit:11.34;}.cls-1,.cls-3{stroke-width:0.28px;}.cls-2{fill:#777;stroke:#777;stroke-width:2.01px;fill-rule:evenodd;}.cls-3{fill:#1d1d1b;}.cls-4{stroke-width:2px;}</style></defs><g id="svgGroup"><path id="front_outsideCutPath" data-name="front outsideCutPath" class="cls-1" d="M.14,802.34v85.74H14.31v69.14H.14v69.13H14.31v69.14H.14v69.14H14.31v69.13H.14v69.16H14.31v69.14H.14v69.13H14.31v69.14H.14v85.74H62.72v-14.15h69.13v14.18H201v-14.18h69.14v14.18h69.13v-14.18h69.14v14.18h69.14v-14.18H546.7v14.18h69.14v-14.18H685v14.18h69.14v-14.18h69.1v14.18h69.14v-14.18H961.5v14.18h69.13v-14.18h69.14v14.18h62.58v-85.74h-14.18v-69.14h14.18v-69.13h-14.18v-69.17h14.18v-69.14h-14.18v-69.13h14.18v-69.14h-14.18v-69.16h14.18V957.22h-14.18V888.08h14.18V802.34h-62.58v14.18h-69.14V802.34H961.5v14.18H892.36V802.34H823.22v14.18H754.09V802.34H685v14.18H615.81V802.34H546.67v14.18H477.54V802.34H408.4v14.18H339.26V802.34H270.13v14.18H201V802.34H131.85v14.18H62.72V802.34Z" transform="translate(0 0)"/><circle class="cls-1" cx="448.2" cy="229.42" r="85.04"/><circle class="cls-1" cx="714.28" cy="229.42" r="85.04"/><path id="left_outsideCutPath" data-name="left outsideCutPath" class="cls-1" d="M1185,802.34v85.74h-14.17v69.14H1185v69.13h-14.17v69.14H1185v69.14h-14.17v69.13H1185v69.16h-14.17v69.14H1185v69.13h-14.17v69.14H1185v85.74h22.13v-14.15h69.13v14.18h22.13v-85.74h14.17v-69.14h-14.17v-69.13h14.17v-69.17h-14.17v-69.14h14.17v-69.13h-14.17v-69.14h14.17v-69.16h-14.17V957.22h14.17V888.08h-14.17V802.34h-22.13v14.18h-69.13V802.34Z" transform="translate(0 0)"/><path id="left_labelLayer" data-name="left labelLayer" class="cls-2" d="M1251.8,1194.73v1.79h-3.86v13.4h-2.3v-13.4h-2.71v-1l2.71-.83v-.85a8.8,8.8,0,0,1,.22-2.11q.81-3.48,4.67-3.48a6.74,6.74,0,0,1,1,.08,10.34,10.34,0,0,1,1.08.22c.23,0,.47.12.7.19l-.6,1.84a8.84,8.84,0,0,0-1.69-.4h-.58a2.63,2.63,0,0,0-.74.08,2,2,0,0,0-1.18.78,4.89,4.89,0,0,0-.62,2.78v1Zm-10.76,6.55v1.45H1230.6a7.2,7.2,0,0,0,.65,3,4.94,4.94,0,0,0,.69,1,4.28,4.28,0,0,0,2.2,1.23,6.69,6.69,0,0,0,1.41.15,12.17,12.17,0,0,0,4.54-.9l.3-.12v2c-.41.17-.83.33-1.25.47s-.7.2-1,.28a13.51,13.51,0,0,1-2.62.23,9.4,9.4,0,0,1-2.24-.27,6.29,6.29,0,0,1-3.07-1.78,7.75,7.75,0,0,1-1.94-5.28v-.41a12,12,0,0,1,.23-2.39,8.1,8.1,0,0,1,1-2.59,7.31,7.31,0,0,1,.61-.85,5.87,5.87,0,0,1,4.29-2.14h.56a7.09,7.09,0,0,1,2,.26,5.26,5.26,0,0,1,2.54,1.61,6.43,6.43,0,0,1,1.46,2.94,9.32,9.32,0,0,1,.06,2.11Zm20.5,6.72v1.76l-.27.11a5.78,5.78,0,0,1-.69.17h-.14a7.17,7.17,0,0,1-1.31.12,5.8,5.8,0,0,1-1.76-.24q-2.64-.81-2.64-4.4v-9h-2.17v-1.11l2.17-1,1-3.24H1257v3.51h4.4v1.79H1257v8.92a4.47,4.47,0,0,0,.07.82,2.76,2.76,0,0,0,.25.8,2.34,2.34,0,0,0,.33.49,2.25,2.25,0,0,0,1.79.73,6.71,6.71,0,0,0,1.1-.08h.07a6.91,6.91,0,0,0,.91-.15Zm-37.35-19.64v21.56h-2.3v-21.54Zm6.46,12.5h7.93a6.32,6.32,0,0,0-.44-2.47,3.62,3.62,0,0,0-.53-.86,3.19,3.19,0,0,0-1.89-1.08,5.22,5.22,0,0,0-.88-.07,3.72,3.72,0,0,0-2.91,1.19,4.35,4.35,0,0,0-.9,1.52,7.17,7.17,0,0,0-.38,1.77Z" transform="translate(0 0)"/><path id="top_outsideCutPath" data-name="top outsideCutPath" class="cls-1" d="M1335.26,1468.49v22.12h-14.17v69.14h14.17v22.17h48.4v14.18h69.14v-14.18h69.13v14.18h69.14v-14.18h69.14v14.18h69.14v-14.18h69.13v14.18h69.14v-14.18h69.14v14.18h69.13v-14.18H2075v14.18h69.14v-14.18h69.13v14.18h69.14v-14.18h69.14v14.18h69.14v-14.18h48.4V1559.8h14.17v-69.14h-14.16v-22.12h-48.4v-14.18h-69.14v14.18h-69.14v-14.18H2213.3v14.18h-69.13v-14.18H2075v14.18h-69.14v-14.18h-69.13v14.18h-69.13v-14.18h-69.14v14.18h-69.13v-14.18h-69.14v14.18h-69.14v-14.18h-69.14v14.18H1452.8v-14.18h-69.14v14.18Z" transform="translate(0 0)"/><path id="top_labelLayer" data-name="top labelLayer" class="cls-2" d="M1912.38,1529.16h-.17c.07.54.11,1.07.14,1.61v7.15h-2.3v-22h1.86l.33,2.07h.11a5.64,5.64,0,0,1,.89-1,4.91,4.91,0,0,1,1.17-.79,5.9,5.9,0,0,1,1.65-.48,7.42,7.42,0,0,1,3,.2,5.22,5.22,0,0,1,2.67,1.79,9.06,9.06,0,0,1,1.64,5.79,13.27,13.27,0,0,1-.17,2.27,8.64,8.64,0,0,1-.66,2.17,6.52,6.52,0,0,1-.83,1.36,5.45,5.45,0,0,1-3.87,2h-.76a6.66,6.66,0,0,1-2.71-.54A4.93,4.93,0,0,1,1912.38,1529.16Zm-22.45.06V1531l-.27.1a4.2,4.2,0,0,1-.7.17h-.13a9.51,9.51,0,0,1-1.31.11,5.86,5.86,0,0,1-1.77-.24q-2.64-.81-2.64-4.39v-9h-2.17v-1.11l2.17-1,1-3.24h1.33v3.54h4.4v1.78h-4.4v8.93a4.43,4.43,0,0,0,.07.81,3.1,3.1,0,0,0,.25.8,2.34,2.34,0,0,0,.33.49,2.29,2.29,0,0,0,1.79.74,8,8,0,0,0,1.1-.08h.07A6.51,6.51,0,0,0,1889.93,1529.22Zm15.91-3.39a12.81,12.81,0,0,0,.21-2.31,11.13,11.13,0,0,0-.31-2.7,7.16,7.16,0,0,0-1.57-3,6,6,0,0,0-2.79-1.8,7.49,7.49,0,0,0-2.26-.32,8.68,8.68,0,0,0-1.61.14,6,6,0,0,0-3.54,1.93,5.94,5.94,0,0,0-.78,1.08,9.26,9.26,0,0,0-1.08,4.7,11.57,11.57,0,0,0,.15,1.86,8.21,8.21,0,0,0,.71,2.32c0,.11.11.22.17.33a6.23,6.23,0,0,0,2.26,2.41,6.88,6.88,0,0,0,3.62,1,9.12,9.12,0,0,0,1.56-.13,6,6,0,0,0,3.6-1.95,5.62,5.62,0,0,0,.76-1.05,7.78,7.78,0,0,0,.9-2.51Zm-11.35-2.31a7.3,7.3,0,0,0,1.16,4.43,3.78,3.78,0,0,0,2.46,1.44,5.87,5.87,0,0,0,2.41-.1,3.67,3.67,0,0,0,2-1.34,4.91,4.91,0,0,0,.77-1.49,8.11,8.11,0,0,0,.32-1.54,13,13,0,0,0,.08-1.4,12.63,12.63,0,0,0-.11-1.63,7.09,7.09,0,0,0-.37-1.51,5.16,5.16,0,0,0-.69-1.26,3.81,3.81,0,0,0-2.35-1.4,6,6,0,0,0-2.47.06,3.64,3.64,0,0,0-2,1.32,7.08,7.08,0,0,0-1.21,4.42Zm17.89-.52v.52a13.75,13.75,0,0,0,.07,1.57,6.86,6.86,0,0,0,.69,2.55,3.52,3.52,0,0,0,.3.45,3.28,3.28,0,0,0,1.69,1.14,4.9,4.9,0,0,0,1.26.22h.47a3.89,3.89,0,0,0,1.51-.28,3.64,3.64,0,0,0,1.57-1.31,5.46,5.46,0,0,0,.76-1.62,7.64,7.64,0,0,0,.3-1.64,10.65,10.65,0,0,0,0-1.13,9.19,9.19,0,0,0-.48-3.16,5.43,5.43,0,0,0-.63-1.19,3.58,3.58,0,0,0-2.62-1.49,4.51,4.51,0,0,0-.52,0,4.05,4.05,0,0,0-3.36,1.29,6.28,6.28,0,0,0-1.06,3.74Z" transform="translate(0 0)"/><path id="back_outsideCutPath" data-name="back outsideCutPath" class="cls-1" d="M.14.14V85.92H14.31v69.14H.14V224.2H14.31v69.13H.14v69.09H14.31v69.14H.14V500.7H14.31v69.13H.14V639H14.31v69.14H.14v85.73H62.72V779.67h69.13v14.17H201V779.67h69.14v14.17h69.13V779.67h69.14v14.17h69.14V779.67H546.7v14.17h69.14V779.67H685v14.17h69.14V779.67h69.1v14.17h69.14V779.67H961.5v14.17h69.13V779.67h69.14v14.17h62.58V708.11h-14.18V639h14.18V569.83h-14.18V500.7h14.18V431.56h-14.18V362.42h14.18V293.28h-14.18V224.15h14.18V155h-14.18V85.92h14.18V.14h-62.58V14.31h-69.14V.14H961.5V14.31H892.36V.14H823.22V14.31H754.09V.14H685V14.31H615.81V.14H546.67V14.31H477.54V.14H408.4V14.31H339.26V.14H270.13V14.31H201V.14H131.85V14.31H62.72V.14Z" transform="translate(0 0)"/><path id="right_outsideCutPath" data-name="right outsideCutPath" class="cls-1" d="M1185,.14V85.92h-14.17v69.14H1185V224.2h-14.17v69.13H1185v69.09h-14.17v69.14H1185V500.7h-14.17v69.13H1185V639h-14.17v69.14H1185v85.73h22.13V779.67h69.13v14.17h22.13V708.11h14.17V639h-14.17V569.83h14.17V500.7h-14.17V431.56h14.17V362.42h-14.17V293.28h14.17V224.15h-14.17V155h14.17V85.92h-14.17V.14h-22.13V14.31h-69.13V.14Z" transform="translate(0 0)"/><path id="right_labelLayer" data-name="right labelLayer" class="cls-2" d="M1259.34,404.35H1257v-9.81a6.74,6.74,0,0,0-.08-1,3.24,3.24,0,0,0-.77-1.75,2.65,2.65,0,0,0-1.06-.68,5,5,0,0,0-1.58-.23,7.06,7.06,0,0,0-1.3.11,4.41,4.41,0,0,0-1.28.44,3.33,3.33,0,0,0-.92.75,3.84,3.84,0,0,0-.65,1.15,8.11,8.11,0,0,0-.36,2.59v8.42h-2.3V382.82h2.3v8a1.36,1.36,0,0,1,0,.47h.14a4.51,4.51,0,0,1,1.61-1.55l.32-.18A6,6,0,0,1,1253,389a7,7,0,0,1,.92-.06,9.12,9.12,0,0,1,1.56.13,5.64,5.64,0,0,1,1.5.45,4.14,4.14,0,0,1,1.11.74,4.1,4.1,0,0,1,1,1.56,7.68,7.68,0,0,1,.4,2.65Zm-21-15.17h5.25v1.46l-2.81.33a4.35,4.35,0,0,1,.69,1.27,4.8,4.8,0,0,1,.31,1.76,5.33,5.33,0,0,1-.25,1.63,4.21,4.21,0,0,1-1.28,1.93,5.89,5.89,0,0,1-3.66,1.31h-.52a8.08,8.08,0,0,1-.85-.05l-.42-.06a4.59,4.59,0,0,0-.66.42,2.75,2.75,0,0,0-.54.59,1.83,1.83,0,0,0-.27.94,1,1,0,0,0,.51.92,3.66,3.66,0,0,0,1.76.29h2.69a9.73,9.73,0,0,1,1.43.11,5.28,5.28,0,0,1,1.35.36,3.81,3.81,0,0,1,1,.57,3.36,3.36,0,0,1,1.25,2.15,5.12,5.12,0,0,1,.08.87,4.31,4.31,0,0,1-2,3.84,8.5,8.5,0,0,1-3.73,1.2,15.79,15.79,0,0,1-2.17.12,12.46,12.46,0,0,1-1.73-.1,6.5,6.5,0,0,1-2.86-1,3.52,3.52,0,0,1-1.6-2.86,1.13,1.13,0,0,1,0-.26,3.53,3.53,0,0,1,.88-2.4,4.56,4.56,0,0,1,2.5-1.37,2.32,2.32,0,0,1-.93-.74l0-.07a2.1,2.1,0,0,1-.39-1.16v-.13a2.7,2.7,0,0,1,.14-.85,1.9,1.9,0,0,1,.31-.6,2.85,2.85,0,0,1,.43-.49,4.33,4.33,0,0,1,.53-.43l.44-.29a4,4,0,0,1-1.75-1.4,2.2,2.2,0,0,1-.17-.25,4.69,4.69,0,0,1-.73-2.29v-.36a4.6,4.6,0,0,1,3.37-4.88,7,7,0,0,1,1.63-.29h.73a7.45,7.45,0,0,1,1.16.07,6.71,6.71,0,0,1,.89.19ZM1271,402.46v1.76l-.27.1a5.49,5.49,0,0,1-.7.17h-.13a7.17,7.17,0,0,1-1.31.12,5.86,5.86,0,0,1-1.77-.24c-1.75-.54-2.63-2-2.63-4.4v-9H1262v-1.11l2.18-.95,1-3.24h1.32v3.51h4.41V391h-4.41v8.95a5.54,5.54,0,0,0,.07.81,3.12,3.12,0,0,0,.26.8,2.34,2.34,0,0,0,.33.49,2.23,2.23,0,0,0,1.78.73,6.91,6.91,0,0,0,1.11-.08h.07C1270.52,402.58,1270.82,402.52,1271,402.46Zm-49.91-13.39-.32,2.13a9.57,9.57,0,0,0-1.41-.2h-.25a4,4,0,0,0-3.15,1.49,5.31,5.31,0,0,0-1.27,2.95q0,.39,0,.78v8.13h-2.3V389.18h1.9l.26,2.81h.11a8.14,8.14,0,0,1,.87-1.24,6.19,6.19,0,0,1,1.17-1,4.52,4.52,0,0,1,2.61-.8h1a5.32,5.32,0,0,1,.8.12Zm5.13.11v15.17h-2.3V389.18ZM1237.49,404h-2.75a4.77,4.77,0,0,0-1,.08,3.15,3.15,0,0,0-1.49.66,2.69,2.69,0,0,0-.87,2.15,2.55,2.55,0,0,0,.15.86,2.11,2.11,0,0,0,.89,1,5.77,5.77,0,0,0,3,.64,11,11,0,0,0,1.51-.07,7,7,0,0,0,2.46-.63l.31-.17a2.65,2.65,0,0,0,1.39-2.35,3.15,3.15,0,0,0-.06-.61,1.61,1.61,0,0,0-.7-1.1,2,2,0,0,0-.52-.22,8.11,8.11,0,0,0-2.3-.24Zm-4.81-10a4.91,4.91,0,0,0,.09.94,2.66,2.66,0,0,0,.81,1.47,3.55,3.55,0,0,0,2.5.82c1.77,0,2.85-.68,3.22-2a5.11,5.11,0,0,0,.15-1.23c0-1.81-.72-2.9-2.15-3.27a5.36,5.36,0,0,0-1.26-.15,3.71,3.71,0,0,0-2,.51,3.94,3.94,0,0,0-.45.36,3.18,3.18,0,0,0-.85,2.09,4,4,0,0,0,0,.49Zm-8.52-10.09a1.12,1.12,0,0,0-.24.33,2.34,2.34,0,0,0-.05,1.5,1,1,0,0,0,.29.48,1.4,1.4,0,0,0,1.92,0,1.23,1.23,0,0,0,.22-.29,1.69,1.69,0,0,0,.15-.43,3.23,3.23,0,0,0,0-.44v-.25a1.3,1.3,0,0,0-.39-.89,1.34,1.34,0,0,0-1-.38h0A1.37,1.37,0,0,0,1224.16,383.92Z" transform="translate(0 0)"/><path id="bottom_outsideCutPath" data-name="bottom outsideCutPath" class="cls-1" d="M1335.26,1318.25v22.12h-14.17v69.14h14.17v22.13h48.4v14.17h69.14v-14.17h69.13v14.17h69.14v-14.17h69.14v14.17h69.14v-14.17h69.13v14.17h69.14v-14.17h69.14v14.17h69.13v-14.17H2075v14.17h69.14v-14.17h69.13v14.17h69.14v-14.17h69.14v14.17h69.14v-14.17h48.4v-22.13h14.17v-69.14h-14.16v-22.12h-48.4v-14.17h-69.14v14.17h-69.14v-14.17H2213.3v14.17h-69.13v-14.17H2075v14.17h-69.14v-14.17h-69.13v14.17h-69.13v-14.17h-69.14v14.17h-69.13v-14.17h-69.14v14.17h-69.14v-14.17h-69.14v14.17H1452.8v-14.17h-69.14v14.17Z" transform="translate(0 0)"/><path id="bottom_labelLayer" data-name="bottom labelLayer" class="cls-2" d="M1948.82,1385.57h-2.3v-9.87a5.17,5.17,0,0,0-.3-1.91,2.86,2.86,0,0,0-.47-.81,2.42,2.42,0,0,0-1.13-.72,4,4,0,0,0-1.28-.18,5.45,5.45,0,0,0-1.21.11,3.41,3.41,0,0,0-2,1.12,5.88,5.88,0,0,0-1,3.77v8.49h-2.29v-9.87a5.18,5.18,0,0,0-.31-1.91,2.86,2.86,0,0,0-.47-.81,2.58,2.58,0,0,0-1.11-.72,4.51,4.51,0,0,0-.89-.17h-.42a5.19,5.19,0,0,0-1.18.11,3.31,3.31,0,0,0-2,1.18,6.43,6.43,0,0,0-1,3.7v8.54h-2.3v-15.17H1929l.38,2.08h.11a4.48,4.48,0,0,1,1.83-1.73,5.42,5.42,0,0,1,2.15-.61h.5a7.49,7.49,0,0,1,1.7.17,4,4,0,0,1,3,2.4h.11a4.79,4.79,0,0,1,1.81-1.79l.16-.09a5.92,5.92,0,0,1,2.13-.65h.8a6.26,6.26,0,0,1,2.89.6,3.54,3.54,0,0,1,1,.72,4.81,4.81,0,0,1,1.18,2.76,10.37,10.37,0,0,1,.1,1.47Zm-91-2h-.16l-.49,2h-1.64V1364h2.29v5.23a29.1,29.1,0,0,1-.1,3.06v.09h.11a5.26,5.26,0,0,1,3.82-2.21,7.57,7.57,0,0,1,.95-.06,6.75,6.75,0,0,1,2,.27,5.24,5.24,0,0,1,2.67,1.78,8,8,0,0,1,1.59,4.35,13.49,13.49,0,0,1,.06,1.42,13.27,13.27,0,0,1-.17,2.27,8.72,8.72,0,0,1-.66,2.18,6.52,6.52,0,0,1-.83,1.36,5.39,5.39,0,0,1-3.87,2,7,7,0,0,1-3.47-.51,5.21,5.21,0,0,1-2.07-1.65Zm39.18.06v1.75a1.53,1.53,0,0,1-.27.11,5.49,5.49,0,0,1-.7.17h-.13a9.52,9.52,0,0,1-1.31.12,5.86,5.86,0,0,1-1.77-.24q-2.64-.81-2.64-4.4v-9H1888V1371l2.17-1,1-3.24h1.33v3.51h4.41v1.79h-4.41V1381a4.43,4.43,0,0,0,.07.81,3.1,3.1,0,0,0,.25.8,2.34,2.34,0,0,0,.33.49,2.25,2.25,0,0,0,1.79.73,6.71,6.71,0,0,0,1.1-.08h.07a2.53,2.53,0,0,0,.89-.09Zm10,0v1.75a1.53,1.53,0,0,1-.27.11,5.78,5.78,0,0,1-.69.17h-.14a7.17,7.17,0,0,1-1.31.12,5.86,5.86,0,0,1-1.77-.24c-1.75-.54-2.62-2-2.63-4.4v-9H1898V1371l2.17-1,1-3.24h1.33v3.51h4.4v1.79h-4.4V1381a4.43,4.43,0,0,0,.07.81,2.76,2.76,0,0,0,.25.8,2.34,2.34,0,0,0,.33.49,2.25,2.25,0,0,0,1.79.73,6.71,6.71,0,0,0,1.1-.08h.07a6.71,6.71,0,0,0,.89-.09Zm-21.22-3.4a11.16,11.16,0,0,0,.21-2.31,10.66,10.66,0,0,0-.31-2.7,7.26,7.26,0,0,0-1.56-3,6.11,6.11,0,0,0-2.8-1.8,7.52,7.52,0,0,0-2.26-.31,8.67,8.67,0,0,0-1.61.13,6,6,0,0,0-3.54,1.94,5.94,5.94,0,0,0-.78,1.08,9.23,9.23,0,0,0-1.08,4.69,11.69,11.69,0,0,0,.15,1.87,8.48,8.48,0,0,0,.71,2.31l.17.33a6.21,6.21,0,0,0,2.27,2.42,6.87,6.87,0,0,0,3.61,1,9.12,9.12,0,0,0,1.56-.13,6.14,6.14,0,0,0,3.6-2,6.82,6.82,0,0,0,.77-1,8.1,8.1,0,0,0,.92-2.47Zm37.14,0a12.81,12.81,0,0,0,.21-2.31,10.67,10.67,0,0,0-.32-2.7,7,7,0,0,0-1.56-3,6,6,0,0,0-2.79-1.8,7.59,7.59,0,0,0-2.27-.31,8.57,8.57,0,0,0-1.6.13,6.09,6.09,0,0,0-3.55,1.94,7.61,7.61,0,0,0-.78,1.08,9.32,9.32,0,0,0-1.07,4.69,11.69,11.69,0,0,0,.14,1.87,8.5,8.5,0,0,0,.72,2.31l.16.33a6.29,6.29,0,0,0,2.27,2.42,6.88,6.88,0,0,0,3.62,1,8.93,8.93,0,0,0,1.55-.13,6.16,6.16,0,0,0,3.61-2,6.75,6.75,0,0,0,.76-1,7.87,7.87,0,0,0,.93-2.47Zm-48.49-2.31a7.17,7.17,0,0,0,1.17,4.43,3.71,3.71,0,0,0,2.45,1.45,6.74,6.74,0,0,0,1,.08,5.54,5.54,0,0,0,1.4-.18,3.67,3.67,0,0,0,2-1.34,5,5,0,0,0,.77-1.5,7.31,7.31,0,0,0,.32-1.53,12.55,12.55,0,0,0,0-3,7,7,0,0,0-.37-1.5,5,5,0,0,0-.69-1.26,3.72,3.72,0,0,0-2.35-1.4,5.06,5.06,0,0,0-1.1-.1,5.17,5.17,0,0,0-1.36.16,3.66,3.66,0,0,0-2.05,1.32,7.14,7.14,0,0,0-1.16,4.42Zm37.14,0a7.23,7.23,0,0,0,1.16,4.43,3.75,3.75,0,0,0,2.46,1.45,6.74,6.74,0,0,0,1,.08,5.56,5.56,0,0,0,1.41-.18,3.78,3.78,0,0,0,2-1.34,5,5,0,0,0,.77-1.5,8,8,0,0,0,.32-1.53,13.33,13.33,0,0,0,.08-1.41,12.63,12.63,0,0,0-.11-1.63,7.83,7.83,0,0,0-.37-1.5,5,5,0,0,0-.69-1.26,3.72,3.72,0,0,0-2.35-1.4,6,6,0,0,0-2.47.06,3.64,3.64,0,0,0-2,1.32,7.11,7.11,0,0,0-1.18,4.46Zm-51.82-5.32a3.17,3.17,0,0,0-.89.78,7.59,7.59,0,0,0-1,4.54,10.59,10.59,0,0,0,.08,1.57,6.64,6.64,0,0,0,.7,2.55,2.74,2.74,0,0,0,.29.46,3.28,3.28,0,0,0,1.69,1.14,5.37,5.37,0,0,0,1.26.22h.47a4.74,4.74,0,0,0,1.3-.18,3.37,3.37,0,0,0,1.86-1.37,8,8,0,0,0,1-4.44,11.35,11.35,0,0,0-.08-1.54,6.18,6.18,0,0,0-1-2.87,3.7,3.7,0,0,0-3.22-1.45,4.93,4.93,0,0,0-2.43.64Z" transform="translate(0 0)"/><ellipse class="cls-1" cx="1030.53" cy="670.39" rx="56.69" ry="56.93"/><rect class="cls-3" x="533.24" y="28.36" width="96" height="735.11"/><circle class="cls-1" cx="448.2" cy="528.41" r="85.04"/><circle class="cls-1" cx="714.28" cy="528.41" r="85.04"/><path class="cls-1" d="M99.49,919.23l-7.6,19.28H44.21l10.64-26.8.08-.16a2.63,2.63,0,0,1,.8-1.12H168.37l-3.44,8.8Zm-44.56-7.68a.31.31,0,0,0-.08.24.31.31,0,0,1,.08-.24Zm71.64-10.88q-15.67,0-22.24,6.4H57.73a41.68,41.68,0,0,1,3.36-3.8c1-1,2-1.85,2.88-2.6q14-11,37.36-11h75.24l-4.32,11Z" transform="translate(0 0)"/><path class="cls-1" d="M218.29,938.51H171.57l10.88-28.06h46.72Zm-34.48-31.44,6.76-17.36h46.72l-6.72,17.36Z" transform="translate(0 0)"/><path class="cls-1" d="M277.73,907.07l2.4-6.4H248.21l4.32-11h112.8l-4.32,11h-33.2l-2.48,6.4Zm35.12,31.44h-47.6l11-28.08h47.6Z" transform="translate(0 0)"/><path class="cls-1" d="M453.49,917.07l2.72-6.64h28.36l-11,28.08h-34.4q-12.24,0-17.68-5.2l-22-21.44-10.56,26.64H360.45l11-28.08h75.44Zm-41.28-27.36q14,0,18.8,4.8l12.56,12.56H372.93l6.8-17.36Zm80.64,0-6.8,17.36H457.57l6.88-17.36Z" transform="translate(0 0)"/><path class="cls-1" d="M558.45,925.45l-24.4.08-17.36,13H486.05l37.28-28.08h31l-6.4,4.8h14.64l1.84-4.8h47.68l-11,28.08H553.33ZM528,907.05l15.44-11.6a29,29,0,0,1,17.92-5.76h59l-6.8,17.36H565.81l2.56-6.56H568l-8.88,6.56Z" transform="translate(0 0)"/><path class="cls-1" d="M660,907.07l2.4-6.4H630.45l4.32-11h112.8l-4.32,11h-33.2l-2.48,6.4Zm35.12,31.44h-47.6l11.08-28.06h47.6Z" transform="translate(0 0)"/><path class="cls-1" d="M837.57,910.45h29.28l-4.16,10.72a29.51,29.51,0,0,1-3.28,5,26,26,0,0,1-4.24,4.08q-10.89,8.32-36.56,8.32H780.45q-25.61,0-30.08-8.8a11.18,11.18,0,0,1-1.28-5,14.71,14.71,0,0,1,.12-1.88,9.66,9.66,0,0,1,.52-2.12l4-10.24h47.6l-4.32,11v-.08a5.15,5.15,0,0,0-.24.76,3.08,3.08,0,0,0-.08.68q0,4.4,15.2,4.88,18.87-.56,21.52-6.8Zm-82.4-3.36,6.8-17.36h47.6l-6.8,17.36Zm83.84,0,6.8-17.36h29.28l-6.8,17.36Z" transform="translate(0 0)"/><path class="cls-1" d="M994.13,910.45a24.19,24.19,0,0,1-19.12,8.8l9,19.6H936.37l-9.68-19.6h-1.36l-7.6,19.28h-47.6l11-28.08Zm-30.32-20.72q23.28.16,28.72,6.64,3.51,3.28,3.52,9.12v1.6H966.37l1-2.64q-1.36-3.76-15-3.76H932.69l-2.48,6.4H882.57l6.8-17.36Z" transform="translate(0 0)"/><path class="cls-1" d="M1052.57,919.23l-.88,2.24a5.15,5.15,0,0,0-.24.76,2.47,2.47,0,0,0-.08.6q0,2.32,3.72,3.6t11.48,1.28h48l-4.24,10.8h-75.2q-25.61,0-30.08-8.8a11.13,11.13,0,0,1-1.2-5,15.88,15.88,0,0,1,.48-3.76l3.6-9.12v-.08l.08-.16a4,4,0,0,1,.88-1.12h112.48l-3.44,8.8ZM1008,911.55s0,.07-.06.08h0v.16a.3.3,0,0,1,.12-.24Zm71.6-10.88q-15.6,0-22.16,6.4h-46.56a39.16,39.16,0,0,1,3.36-3.8c1-1,2-1.85,2.88-2.6q14-11,37.36-11h75.12l-4.32,11Z" transform="translate(0 0)"/><rect class="cls-1" x="62.3" y="1348.28" width="53.33" height="53.33"/><rect class="cls-1" x="164.59" y="1348.28" width="53.33" height="53.33"/><rect class="cls-1" x="266.56" y="1348.28" width="53.33" height="53.33"/><circle class="cls-1" cx="325.56" cy="1076.03" r="5.67"/><path class="cls-4" d="M124.62,1159.78c69.36-11.33,127.55-19.21,127.55-19.21l16.11-13.14L290,1116.92S326.83,1088,330.58,1088s38.84-9.2,38.84-9.2l59.85-13.14,42.31-5.25,48.24-6.57,41-6.57,38.2-10.51s53.14-14.46,55.73-14.46,26.33,2.63,34.58,0,70.18,2.63,80.5,0,69.14,9.2,74.3,11.83,79.46,7.88,98,9.2,89.78,7.88,96,7.88,32.63,10.51,32.63,10.51c1.24,25.4-2.9,32.85-7.31,34.52-4.93,1.88-9.34-3.81-19.55-1.77-3.94.78-7.39,2.45-13.33,5.33-4.89,2.37-8.06,4.33-9.78,5.33A84.83,84.83,0,0,1,995,1114c-15.06,2.55-19.53-4.43-33.78-5.33s-28.63,8-56.89,25.78c-33.6,21.17-29.47,24-39,25.3-19.26,2.6-35-8-61.67-1.25a36.09,36.09,0,0,0-3.9,1.25c-8.25,3.12-24.76,6.74-40.24,16.76s-25.33,15.27-39,19.21-56.24,13.17-65.39,13.17-54.56-2.63-71.07-5.26c-20.38-3.24-40.49-5.61-80.51-11.82-13.93-2.16-28.85-4.53-49.87-6.67-9.57-1-20.78-2.11-33.78-2.66a402.79,402.79,0,0,0-65.78,2.66l-48,1.78c-40.71,1.5-52.74.45-72.89,2.67a321,321,0,0,0-59.55,12.44" transform="translate(0 0)"/><circle class="cls-1" cx="470.69" cy="1046.59" r="5.67"/><circle class="cls-1" cx="287.55" cy="1202.32" r="5.67"/><circle class="cls-1" cx="445.35" cy="1202.32" r="5.67"/><circle class="cls-1" cx="581.24" cy="1215.57" r="5.67"/><circle class="cls-1" cx="731.36" cy="1207.99" r="5.67"/><circle class="cls-1" cx="857.8" cy="1171.48" r="5.67"/><circle class="cls-1" cx="1018.38" cy="1118.61" r="5.67" transform="translate(-350.55 474.87) rotate(-22.5)"/><circle class="cls-1" cx="1026.84" cy="1039.26" r="5.67" transform="translate(-319.54 472.06) rotate(-22.5)"/><circle class="cls-1" cx="874.3" cy="1027.92" r="5.67"/><circle class="cls-1" cx="737.03" cy="1010.22" r="5.67"/><circle class="cls-1" cx="586.91" cy="1027.92" r="5.67"/></g></svg>